<svg width="16" height="16" viewBox="0 0 16 16" fill="none" xmlns="http://www.w3.org/2000/svg">
<path d="M13.3332 14.6667H11.9998V13.3334C11.9998 12.803 11.7891 12.2943 11.4141 11.9192C11.039 11.5441 10.5303 11.3334 9.99984 11.3334H5.99984C5.4694 11.3334 4.9607 11.5441 4.58562 11.9192C4.21055 12.2943 3.99984 12.803 3.99984 13.3334V14.6667H2.6665V13.3334C2.6665 12.4494 3.01769 11.6015 3.64281 10.9764C4.26794 10.3513 5.11578 10.0001 5.99984 10.0001H9.99984C10.8839 10.0001 11.7317 10.3513 12.3569 10.9764C12.982 11.6015 13.3332 12.4494 13.3332 13.3334V14.6667ZM7.99984 8.66675C7.47455 8.66675 6.95441 8.56328 6.4691 8.36227C5.9838 8.16125 5.54284 7.86661 5.17141 7.49518C4.79998 7.12374 4.50534 6.68278 4.30432 6.19748C4.1033 5.71218 3.99984 5.19204 3.99984 4.66675C3.99984 4.14146 4.1033 3.62132 4.30432 3.13601C4.50534 2.65071 4.79998 2.20976 5.17141 1.83832C5.54284 1.46689 5.9838 1.17225 6.4691 0.97123C6.95441 0.770211 7.47455 0.666748 7.99984 0.666748C9.0607 0.666748 10.0781 1.08818 10.8283 1.83832C11.5784 2.58847 11.9998 3.60588 11.9998 4.66675C11.9998 5.72761 11.5784 6.74503 10.8283 7.49518C10.0781 8.24532 9.0607 8.66675 7.99984 8.66675ZM7.99984 7.33342C8.70708 7.33342 9.38536 7.05246 9.88546 6.55237C10.3856 6.05227 10.6665 5.37399 10.6665 4.66675C10.6665 3.9595 10.3856 3.28123 9.88546 2.78113C9.38536 2.28103 8.70708 2.00008 7.99984 2.00008C7.29259 2.00008 6.61432 2.28103 6.11422 2.78113C5.61412 3.28123 5.33317 3.9595 5.33317 4.66675C5.33317 5.37399 5.61412 6.05227 6.11422 6.55237C6.61432 7.05246 7.29259 7.33342 7.99984 7.33342Z" fill="white"/>
</svg>
