<svg width="17" height="16" viewBox="0 0 17 16" fill="none" xmlns="http://www.w3.org/2000/svg">
<path d="M9.1665 0.666626L9.16717 2.70796C10.342 2.85649 11.434 3.39158 12.2713 4.22897C13.1085 5.06636 13.6435 6.15846 13.7918 7.33329H15.8332V8.66663L13.7918 8.66729C13.6433 9.842 13.1083 10.934 12.2711 11.7712C11.4338 12.6085 10.3419 13.1435 9.16717 13.292L9.1665 15.3333H7.83317V13.292C6.65834 13.1436 5.56624 12.6087 4.72885 11.7714C3.89146 10.9341 3.35636 9.8421 3.20784 8.66729L1.1665 8.66663V7.33329H3.20784C3.35623 6.15836 3.89126 5.06618 4.72866 4.22878C5.56606 3.39138 6.65824 2.85635 7.83317 2.70796V0.666626H9.1665ZM8.49984 3.99996C7.43897 3.99996 6.42156 4.42139 5.67141 5.17153C4.92126 5.92168 4.49984 6.93909 4.49984 7.99996C4.49984 9.06082 4.92126 10.0782 5.67141 10.8284C6.42156 11.5785 7.43897 12 8.49984 12C9.5607 12 10.5781 11.5785 11.3283 10.8284C12.0784 10.0782 12.4998 9.06082 12.4998 7.99996C12.4998 6.93909 12.0784 5.92168 11.3283 5.17153C10.5781 4.42139 9.5607 3.99996 8.49984 3.99996ZM8.49984 6.66663C8.85346 6.66663 9.1926 6.8071 9.44265 7.05715C9.69269 7.3072 9.83317 7.64634 9.83317 7.99996C9.83317 8.35358 9.69269 8.69272 9.44265 8.94277C9.1926 9.19282 8.85346 9.33329 8.49984 9.33329C8.14621 9.33329 7.80708 9.19282 7.55703 8.94277C7.30698 8.69272 7.1665 8.35358 7.1665 7.99996C7.1665 7.64634 7.30698 7.3072 7.55703 7.05715C7.80708 6.8071 8.14621 6.66663 8.49984 6.66663Z" fill="white"/>
</svg>
