<svg width="17" height="16" viewBox="0 0 17 16" fill="none" xmlns="http://www.w3.org/2000/svg">
<path d="M2.50016 2H14.5002C14.677 2 14.8465 2.07024 14.9716 2.19526C15.0966 2.32029 15.1668 2.48986 15.1668 2.66667V13.3333C15.1668 13.5101 15.0966 13.6797 14.9716 13.8047C14.8465 13.9298 14.677 14 14.5002 14H2.50016C2.32335 14 2.15378 13.9298 2.02876 13.8047C1.90373 13.6797 1.8335 13.5101 1.8335 13.3333V2.66667C1.8335 2.48986 1.90373 2.32029 2.02876 2.19526C2.15378 2.07024 2.32335 2 2.50016 2ZM13.8335 4.82533L8.54816 9.55867L3.16683 4.81067V12.6667H13.8335V4.82533ZM3.5075 3.33333L8.54083 7.77467L13.5015 3.33333H3.5075Z" fill="white"/>
</svg>
