<svg width="110" height="32" viewBox="0 0 110 32" fill="none" xmlns="http://www.w3.org/2000/svg">
<path d="M33.9886 26H26.7699V5.63636H34.0483C36.0966 5.63636 37.8598 6.04403 39.3381 6.85938C40.8163 7.66809 41.9531 8.83144 42.7486 10.3494C43.5507 11.8674 43.9517 13.6837 43.9517 15.7983C43.9517 17.9195 43.5507 19.7424 42.7486 21.267C41.9531 22.7917 40.8097 23.9616 39.3182 24.777C37.8333 25.5923 36.0568 26 33.9886 26ZM31.0753 22.3111H33.8097C35.0824 22.3111 36.1529 22.0857 37.0213 21.6349C37.8963 21.1776 38.5526 20.4716 38.9901 19.517C39.4342 18.5559 39.6562 17.3163 39.6562 15.7983C39.6562 14.2936 39.4342 13.0639 38.9901 12.1094C38.5526 11.1548 37.8996 10.4522 37.0312 10.0014C36.1629 9.55066 35.0923 9.32528 33.8196 9.32528H31.0753V22.3111ZM52.3417 26.2983C50.7706 26.2983 49.4184 25.9801 48.2848 25.3438C47.1579 24.7008 46.2896 23.7926 45.6797 22.6193C45.0699 21.4394 44.765 20.044 44.765 18.4332C44.765 16.8622 45.0699 15.4834 45.6797 14.2969C46.2896 13.1103 47.148 12.1856 48.255 11.5227C49.3687 10.8598 50.6745 10.5284 52.1726 10.5284C53.1802 10.5284 54.1182 10.6908 54.9865 11.0156C55.8615 11.3338 56.6239 11.8144 57.2735 12.4574C57.9297 13.1004 58.4401 13.9091 58.8047 14.8835C59.1693 15.8513 59.3516 16.9848 59.3516 18.2841V19.4474H46.4553V16.8224H55.3644C55.3644 16.2126 55.2318 15.6723 54.9667 15.2017C54.7015 14.7311 54.3336 14.3632 53.863 14.098C53.399 13.8262 52.8587 13.6903 52.2422 13.6903C51.5992 13.6903 51.0292 13.8395 50.532 14.1378C50.0415 14.4295 49.657 14.8239 49.3786 15.321C49.1002 15.8116 48.9577 16.3584 48.951 16.9616V19.4574C48.951 20.2131 49.0902 20.866 49.3687 21.4162C49.6537 21.9664 50.0547 22.3906 50.5718 22.6889C51.0888 22.9872 51.702 23.1364 52.4113 23.1364C52.8819 23.1364 53.3128 23.0701 53.7039 22.9375C54.095 22.8049 54.4297 22.6061 54.7081 22.3409C54.9865 22.0758 55.1987 21.7509 55.3445 21.3665L59.2621 21.625C59.0633 22.5663 58.6556 23.3883 58.0391 24.0909C57.4293 24.7869 56.6404 25.3305 55.6726 25.7216C54.7115 26.1061 53.6011 26.2983 52.3417 26.2983ZM63.7021 10.7273L66.5061 16.0668L69.3797 10.7273H73.7249L69.3002 18.3636L73.8442 26H69.5189L66.5061 20.7202L63.5431 26H59.1681L63.7021 18.3636L59.3271 10.7273H63.7021ZM74.5605 26V10.7273H78.7963V26H74.5605ZM76.6883 8.75852C76.0586 8.75852 75.5184 8.54972 75.0676 8.1321C74.6235 7.70786 74.4014 7.20076 74.4014 6.61079C74.4014 6.02746 74.6235 5.52699 75.0676 5.10938C75.5184 4.68513 76.0586 4.47301 76.6883 4.47301C77.3181 4.47301 77.855 4.68513 78.2991 5.10938C78.7499 5.52699 78.9753 6.02746 78.9753 6.61079C78.9753 7.20076 78.7499 7.70786 78.2991 8.1321C77.855 8.54972 77.3181 8.75852 76.6883 8.75852ZM84.7452 17.1705V26H80.5094V10.7273H84.5463V13.4219H84.7253C85.0634 12.5336 85.6301 11.831 86.4256 11.3139C87.221 10.7902 88.1855 10.5284 89.3191 10.5284C90.3797 10.5284 91.3044 10.7604 92.0932 11.2244C92.882 11.6884 93.4952 12.3513 93.9327 13.2131C94.3702 14.0682 94.5889 15.089 94.5889 16.2756V26H90.3532V17.0312C90.3598 16.0966 90.1211 15.3674 89.6372 14.8438C89.1533 14.3134 88.4871 14.0483 87.6387 14.0483C87.0686 14.0483 86.5648 14.1709 86.1273 14.4162C85.6964 14.6615 85.3584 15.0194 85.1131 15.4901C84.8745 15.9541 84.7518 16.5142 84.7452 17.1705ZM100.602 26.2884C99.6281 26.2884 98.7597 26.1193 97.9974 25.7812C97.2351 25.4366 96.6318 24.9295 96.1877 24.2599C95.7502 23.5838 95.5315 22.742 95.5315 21.7344C95.5315 20.8859 95.6872 20.1733 95.9988 19.5966C96.3103 19.0199 96.7346 18.5559 97.2715 18.2045C97.8085 17.8532 98.4183 17.5881 99.1011 17.4091C99.7905 17.2301 100.513 17.1042 101.269 17.0312C102.157 16.9384 102.873 16.8523 103.416 16.7727C103.96 16.6866 104.354 16.5606 104.6 16.3949C104.845 16.2292 104.968 15.9839 104.968 15.6591V15.5994C104.968 14.9697 104.769 14.4825 104.371 14.1378C103.98 13.7931 103.423 13.6207 102.7 13.6207C101.938 13.6207 101.332 13.7898 100.881 14.1278C100.43 14.4593 100.132 14.8769 99.986 15.3807L96.0684 15.0625C96.2673 14.1345 96.6584 13.3324 97.2417 12.6562C97.825 11.9735 98.5774 11.4498 99.4988 11.0852C100.427 10.714 101.501 10.5284 102.72 10.5284C103.569 10.5284 104.381 10.6278 105.156 10.8267C105.939 11.0256 106.631 11.3338 107.235 11.7514C107.844 12.169 108.325 12.706 108.676 13.3622C109.028 14.0118 109.203 14.7907 109.203 15.6989V26H105.186V23.8821H105.067C104.822 24.3594 104.494 24.7803 104.083 25.1449C103.672 25.5028 103.178 25.7846 102.601 25.9901C102.024 26.1889 101.358 26.2884 100.602 26.2884ZM101.816 23.3651C102.439 23.3651 102.989 23.2424 103.466 22.9972C103.943 22.7453 104.318 22.4072 104.59 21.983C104.861 21.5587 104.997 21.0781 104.997 20.5412V18.9205C104.865 19.0066 104.683 19.0862 104.45 19.1591C104.225 19.2254 103.97 19.2884 103.685 19.348C103.4 19.401 103.115 19.4508 102.83 19.4972C102.545 19.5369 102.286 19.5734 102.054 19.6065C101.557 19.6795 101.123 19.7955 100.752 19.9545C100.38 20.1136 100.092 20.3291 99.8866 20.6009C99.6811 20.866 99.5783 21.1974 99.5783 21.5952C99.5783 22.1719 99.7871 22.6127 100.205 22.9176C100.629 23.2159 101.166 23.3651 101.816 23.3651Z" fill="#0C0407"/>
<path d="M21 13.8155H14.5654L19.115 9.26506L16.734 6.8841L12.1845 11.4346V5H8.81645V11.4346L4.266 6.8841L1.88504 9.26506L6.4355 13.8155H0V17.1835H6.4355L1.88504 21.7331L4.266 24.115L8.81645 19.5645V26H12.1845V19.5645L16.734 24.115L19.115 21.7331L14.5654 17.1835H21V13.8155Z" fill="#0C0407"/>
</svg>
