<svg width="17" height="16" viewBox="0 0 17 16" fill="none" xmlns="http://www.w3.org/2000/svg">
<path d="M8.50006 15.3333C9.82615 15.3333 11.0979 14.8065 12.0356 13.8689C12.9733 12.9312 13.5001 11.6594 13.5001 10.3333C13.5001 9.756 13.3467 9.202 13.1667 8.68667C12.0554 9.78467 11.2114 10.3333 10.6334 10.3333C13.2967 5.66667 11.8334 3.66667 7.8334 1C8.16673 4.33333 5.9694 5.84933 5.07473 6.69133C4.34495 7.37779 3.83822 8.26765 3.62025 9.24555C3.40228 10.2235 3.48312 11.2443 3.85229 12.1757C4.22146 13.1071 4.86194 13.9061 5.69067 14.4691C6.5194 15.0322 7.49816 15.3332 8.50006 15.3333ZM8.9734 3.49C11.1341 5.32333 11.1447 6.748 9.4754 9.67267C8.96806 10.5613 9.61006 11.6667 10.6334 11.6667C11.0921 11.6667 11.5561 11.5333 12.0461 11.27C11.9008 11.8187 11.6302 12.3261 11.2555 12.7524C10.8808 13.1787 10.4123 13.5122 9.88678 13.7266C9.36129 13.941 8.7932 14.0305 8.22723 13.9881C7.66127 13.9456 7.11289 13.7724 6.62527 13.4819C6.13764 13.1915 5.7241 12.7919 5.41719 12.3145C5.11027 11.8371 4.91838 11.2949 4.85661 10.7307C4.79484 10.1665 4.86488 9.59573 5.06122 9.06322C5.25756 8.53071 5.57483 8.05105 5.98806 7.662C6.07206 7.58333 6.49806 7.20533 6.51673 7.18867C6.7994 6.93533 7.03206 6.71067 7.26206 6.46467C8.08206 5.586 8.6714 4.61133 8.97273 3.49H8.9734Z" fill="white"/>
</svg>
