<svg width="17" height="16" viewBox="0 0 17 16" fill="none" xmlns="http://www.w3.org/2000/svg">
<path d="M13.9955 3.17132C15.5035 4.68332 15.5555 7.09132 14.1528 8.66199L8.4995 14.3233L2.8475 8.66199C1.44483 7.09132 1.4975 4.67932 3.00483 3.17132C4.51483 1.66199 6.93017 1.61132 8.50083 3.01932C10.0668 1.61332 12.4868 1.65999 13.9955 3.17132ZM3.94817 4.11465C2.95483 5.10799 2.90483 6.69799 3.82017 7.74865L8.50017 12.436L13.1802 7.74932C14.0962 6.69799 14.0462 5.10999 13.0515 4.11332C12.0602 3.11999 10.4642 3.07199 9.41617 3.98932L6.61483 6.79132L5.6715 5.84865L7.55483 3.96399L7.50017 3.91799C6.45017 3.07465 4.9155 3.14665 3.94817 4.11465Z" fill="white"/>
</svg>
