<svg width="17" height="16" viewBox="0 0 17 16" fill="none" xmlns="http://www.w3.org/2000/svg">
<path d="M8.50016 14.6666C4.81816 14.6666 1.8335 11.6819 1.8335 7.99992C1.8335 4.31792 4.81816 1.33325 8.50016 1.33325C12.1822 1.33325 15.1668 4.31792 15.1668 7.99992C15.1668 11.6819 12.1822 14.6666 8.50016 14.6666ZM8.50016 13.3333C9.91465 13.3333 11.2712 12.7713 12.2714 11.7712C13.2716 10.771 13.8335 9.41441 13.8335 7.99992C13.8335 6.58543 13.2716 5.22888 12.2714 4.22868C11.2712 3.22849 9.91465 2.66659 8.50016 2.66659C7.08567 2.66659 5.72912 3.22849 4.72893 4.22868C3.72873 5.22888 3.16683 6.58543 3.16683 7.99992C3.16683 9.41441 3.72873 10.771 4.72893 11.7712C5.72912 12.7713 7.08567 13.3333 8.50016 13.3333ZM6.16683 9.33325H9.8335C9.9219 9.33325 10.0067 9.29813 10.0692 9.23562C10.1317 9.17311 10.1668 9.08832 10.1668 8.99992C10.1668 8.91151 10.1317 8.82673 10.0692 8.76422C10.0067 8.7017 9.9219 8.66659 9.8335 8.66659H7.16683C6.7248 8.66659 6.30088 8.49099 5.98832 8.17843C5.67576 7.86587 5.50016 7.44195 5.50016 6.99992C5.50016 6.55789 5.67576 6.13397 5.98832 5.82141C6.30088 5.50885 6.7248 5.33325 7.16683 5.33325H7.8335V3.99992H9.16683V5.33325H10.8335V6.66659H7.16683C7.07842 6.66659 6.99364 6.7017 6.93113 6.76422C6.86862 6.82673 6.8335 6.91151 6.8335 6.99992C6.8335 7.08832 6.86862 7.17311 6.93113 7.23562C6.99364 7.29813 7.07842 7.33325 7.16683 7.33325H9.8335C10.2755 7.33325 10.6994 7.50885 11.012 7.82141C11.3246 8.13397 11.5002 8.55789 11.5002 8.99992C11.5002 9.44195 11.3246 9.86587 11.012 10.1784C10.6994 10.491 10.2755 10.6666 9.8335 10.6666H9.16683V11.9999H7.8335V10.6666H6.16683V9.33325Z" fill="white"/>
</svg>
