<svg width="16" height="16" viewBox="0 0 16 16" fill="none" xmlns="http://www.w3.org/2000/svg">
<path d="M4.15683 4.30192C3.30686 5.18411 2.7865 6.33202 2.68321 7.5527C2.57992 8.77337 2.90001 9.99239 3.58967 11.0049C4.27932 12.0173 5.29651 12.7615 6.47024 13.1123C7.64397 13.4631 8.90269 13.3992 10.0348 12.9313C10.1115 12.4313 9.9435 11.9513 9.87483 11.7833C9.7215 11.4099 9.21616 10.7719 8.37283 9.88725C8.1475 9.65059 8.16216 9.46859 8.24283 8.92925L8.2515 8.86859C8.30616 8.49925 8.39816 8.28059 9.6415 8.08325C10.2735 7.98325 10.4395 8.23525 10.6695 8.58525L10.7468 8.69992C10.9655 9.01992 11.1275 9.09325 11.3722 9.20392C11.4822 9.25392 11.6188 9.31725 11.8022 9.42059C12.2368 9.66925 12.2368 9.94992 12.2368 10.5646V10.6346C12.2368 10.8953 12.2115 11.1246 12.1715 11.3239C12.6831 10.6819 13.0396 9.93041 13.2132 9.12805C13.3869 8.32568 13.373 7.49407 13.1727 6.69794C12.9724 5.90181 12.5911 5.16266 12.0584 4.53801C11.5257 3.91337 10.856 3.42009 10.1015 3.09659C9.73283 3.34525 9.22683 3.69792 9.05016 3.93992C8.96016 4.06325 8.83216 4.69459 8.41683 4.74659C8.30883 4.75992 8.16283 4.75059 8.00816 4.74059C7.5935 4.71392 7.02683 4.67725 6.8455 5.16992C6.73016 5.48192 6.71016 6.32992 7.08283 6.76992C7.14283 6.83992 7.15416 6.96992 7.1135 7.11592C7.06016 7.30725 6.95283 7.42392 6.91883 7.44792C6.85483 7.41059 6.72683 7.26192 6.6395 7.16125C6.43083 6.91792 6.1695 6.61459 5.83216 6.52125C5.7095 6.48725 5.57483 6.45925 5.4435 6.43125C5.0775 6.35459 4.6635 6.26725 4.56683 6.06192C4.49616 5.91125 4.49683 5.70392 4.49683 5.48525C4.49683 5.20725 4.49683 4.89325 4.36083 4.58859C4.31355 4.47986 4.24406 4.38221 4.15683 4.30192ZM8.00016 14.6666C4.31816 14.6666 1.3335 11.6819 1.3335 7.99992C1.3335 4.31792 4.31816 1.33325 8.00016 1.33325C11.6822 1.33325 14.6668 4.31792 14.6668 7.99992C14.6668 11.6819 11.6822 14.6666 8.00016 14.6666Z" fill="white"/>
</svg>
